<svg width="393" height="127" viewBox="0 0 393 127" fill="none" xmlns="http://www.w3.org/2000/svg">
<path d="M71.92 95H55.12L17.08 37.52V95H0.280001V11.12H17.08L55.12 68.72V11.12H71.92V95Z" fill="#DF0000"/>
<path d="M97.0422 20.6C94.0822 20.6 91.6022 19.68 89.6022 17.84C87.6822 15.92 86.7222 13.56 86.7222 10.76C86.7222 7.96 87.6822 5.63999 89.6022 3.79999C91.6022 1.87999 94.0822 0.919995 97.0422 0.919995C100.002 0.919995 102.442 1.87999 104.362 3.79999C106.362 5.63999 107.362 7.96 107.362 10.76C107.362 13.56 106.362 15.92 104.362 17.84C102.442 19.68 100.002 20.6 97.0422 20.6ZM105.322 28.52V95H88.5222V28.52H105.322ZM138.721 38.12C140.881 35.08 143.841 32.56 147.601 30.56C151.441 28.48 155.801 27.44 160.681 27.44C166.361 27.44 171.481 28.84 176.041 31.64C180.681 34.44 184.321 38.44 186.961 43.64C189.681 48.76 191.041 54.72 191.041 61.52C191.041 68.32 189.681 74.36 186.961 79.64C184.321 84.84 180.681 88.88 176.041 91.76C171.481 94.64 166.361 96.08 160.681 96.08C155.801 96.08 151.481 95.08 147.721 93.08C144.041 91.08 141.041 88.56 138.721 85.52V126.68H121.921V28.52H138.721V38.12ZM173.881 61.52C173.881 57.52 173.041 54.08 171.361 51.2C169.761 48.24 167.601 46 164.881 44.48C162.241 42.96 159.361 42.2 156.241 42.2C153.201 42.2 150.321 43 147.601 44.6C144.961 46.12 142.801 48.36 141.121 51.32C139.521 54.28 138.721 57.76 138.721 61.76C138.721 65.76 139.521 69.24 141.121 72.2C142.801 75.16 144.961 77.44 147.601 79.04C150.321 80.56 153.201 81.32 156.241 81.32C159.361 81.32 162.241 80.52 164.881 78.92C167.601 77.32 169.761 75.04 171.361 72.08C173.041 69.12 173.881 65.6 173.881 61.52ZM198.929 61.52C198.929 54.8 200.249 48.84 202.889 43.64C205.609 38.44 209.249 34.44 213.809 31.64C218.449 28.84 223.609 27.44 229.289 27.44C234.249 27.44 238.569 28.44 242.249 30.44C246.009 32.44 249.009 34.96 251.249 38V28.52H268.169V95H251.249V85.28C249.089 88.4 246.089 91 242.249 93.08C238.489 95.08 234.129 96.08 229.169 96.08C223.569 96.08 218.449 94.64 213.809 91.76C209.249 88.88 205.609 84.84 202.889 79.64C200.249 74.36 198.929 68.32 198.929 61.52ZM251.249 61.76C251.249 57.68 250.449 54.2 248.849 51.32C247.249 48.36 245.089 46.12 242.369 44.6C239.649 43 236.729 42.2 233.609 42.2C230.489 42.2 227.609 42.96 224.969 44.48C222.329 46 220.169 48.24 218.489 51.2C216.889 54.08 216.089 57.52 216.089 61.52C216.089 65.52 216.889 69.04 218.489 72.08C220.169 75.04 222.329 77.32 224.969 78.92C227.689 80.52 230.569 81.32 233.609 81.32C236.729 81.32 239.649 80.56 242.369 79.04C245.089 77.44 247.249 75.2 248.849 72.32C250.449 69.36 251.249 65.84 251.249 61.76ZM304.137 42.32V74.48C304.137 76.72 304.657 78.36 305.697 79.4C306.817 80.36 308.657 80.84 311.217 80.84H319.017V95H308.457C294.297 95 287.217 88.12 287.217 74.36V42.32H279.297V28.52H287.217V12.08H304.137V28.52H319.017V42.32H304.137ZM392.9 60.32C392.9 62.72 392.74 64.88 392.42 66.8H343.82C344.22 71.6 345.9 75.36 348.86 78.08C351.82 80.8 355.46 82.16 359.78 82.16C366.02 82.16 370.46 79.48 373.1 74.12H391.22C389.3 80.52 385.62 85.8 380.18 89.96C374.74 94.04 368.06 96.08 360.14 96.08C353.74 96.08 347.98 94.68 342.86 91.88C337.82 89 333.86 84.96 330.98 79.76C328.18 74.56 326.78 68.56 326.78 61.76C326.78 54.88 328.18 48.84 330.98 43.64C333.78 38.44 337.7 34.44 342.74 31.64C347.78 28.84 353.58 27.44 360.14 27.44C366.46 27.44 372.1 28.8 377.06 31.52C382.1 34.24 385.98 38.12 388.7 43.16C391.5 48.12 392.9 53.84 392.9 60.32ZM375.5 55.52C375.42 51.2 373.86 47.76 370.82 45.2C367.78 42.56 364.06 41.24 359.66 41.24C355.5 41.24 351.98 42.52 349.1 45.08C346.3 47.56 344.58 51.04 343.94 55.52H375.5Z" fill="black"/>
</svg>
