<?xml version="1.0" standalone="no"?>
<!DOCTYPE svg PUBLIC "-//W3C//DTD SVG 20010904//EN"
 "http://www.w3.org/TR/2001/REC-SVG-20010904/DTD/svg10.dtd">
<svg version="1.0" xmlns="http://www.w3.org/2000/svg"
 width="238.000000pt" height="104.000000pt" viewBox="0 0 238.000000 104.000000"
 preserveAspectRatio="xMidYMid meet">

<g transform="translate(0.000000,104.000000) scale(0.100000,-0.100000)"
fill="#000000" stroke="none">
<path d="M0 520 l0 -520 1190 0 1190 0 0 520 0 520 -1190 0 -1190 0 0 -520z
m930 172 l0 -67 44 3 c85 7 136 -47 136 -145 0 -55 -24 -102 -67 -130 -20 -14
-45 -18 -99 -16 -40 0 -78 4 -83 8 -7 4 -11 76 -11 205 0 216 -3 206 58 209
21 1 22 -3 22 -67z m1180 3 l0 -65 40 0 c52 0 93 -21 108 -55 7 -15 12 -71 12
-130 l0 -105 -40 0 -40 0 0 98 c0 107 -6 122 -52 122 l-28 0 0 -110 0 -110
-40 0 -40 0 0 204 c0 223 -3 212 58 215 21 1 22 -3 22 -64z m-850 -25 l0 -40
45 0 c45 0 45 0 45 -35 0 -35 0 -35 -45 -35 l-45 0 0 -69 c0 -78 11 -94 62
-89 30 3 33 1 36 -28 3 -30 1 -32 -42 -38 -52 -8 -108 11 -125 42 -7 12 -11
82 -11 171 0 147 0 150 23 154 54 11 57 9 57 -33z m-1095 -135 c24 -97 25 -97
53 15 19 72 21 75 48 75 28 0 30 -3 51 -84 12 -46 24 -85 26 -88 3 -2 12 29
22 69 9 40 19 81 22 91 3 12 15 17 44 17 21 0 39 -4 39 -9 0 -13 -47 -161 -72
-228 -18 -49 -22 -53 -52 -53 -33 0 -33 1 -58 82 l-24 82 -23 -82 c-24 -81
-24 -82 -56 -82 -29 0 -35 5 -48 38 -18 44 -77 233 -77 245 0 4 19 7 42 5 l41
-3 22 -90z m564 69 c30 -25 51 -75 51 -121 0 -22 -3 -23 -90 -23 -73 0 -90 -3
-90 -15 0 -29 46 -48 100 -41 47 6 50 5 56 -19 10 -39 -8 -49 -85 -49 -55 -1
-75 3 -98 20 -83 61 -82 204 1 255 47 28 117 25 155 -7z m890 11 c34 -17 61
-70 61 -119 l0 -36 -90 0 c-70 0 -90 -3 -90 -14 0 -27 32 -41 94 -41 61 0 61
0 61 -30 0 -26 -4 -30 -40 -38 -117 -25 -205 40 -205 152 0 38 36 104 67 123
34 21 104 23 142 3z m328 7 c6 -4 9 -19 6 -35 -5 -25 -9 -27 -54 -27 -57 0
-79 -23 -79 -80 0 -59 19 -75 84 -74 l56 2 0 -33 c0 -31 -3 -34 -40 -40 -108
-18 -181 39 -182 144 0 94 55 151 147 151 28 0 55 -4 62 -8z m-155 -357 c-1
-5 -12 -10 -25 -10 -18 0 -22 -5 -22 -35 0 -29 4 -36 23 -38 30 -4 28 -22 -2
-22 -54 0 -77 74 -33 105 23 16 64 17 59 0z m338 5 c0 -5 -4 -10 -10 -10 -5 0
-10 5 -10 10 0 6 5 10 10 10 6 0 10 -4 10 -10z m-54 -25 c9 -8 11 -15 5 -15
-6 0 -11 -11 -11 -25 0 -14 5 -25 10 -25 6 0 10 -5 10 -11 0 -6 -8 -9 -17 -7
-18 3 -34 59 -25 86 5 16 10 15 28 -3z m-136 -30 c0 -9 -10 -15 -25 -15 -14 0
-25 -4 -25 -10 0 -5 11 -10 25 -10 14 0 25 -4 25 -10 0 -14 -43 -13 -58 2 -18
18 -15 56 5 67 21 11 53 -3 53 -24z m66 27 c6 -4 14 -24 17 -44 l6 -37 -37 2
c-43 2 -51 26 -14 42 27 12 29 29 2 22 -22 -6 -28 8 -7 16 17 8 21 8 33 -1z
m278 2 c9 -3 16 -15 16 -25 0 -14 -7 -19 -26 -19 -14 0 -23 -4 -19 -10 3 -5
15 -10 26 -10 10 0 19 -4 19 -10 0 -14 -43 -13 -58 2 -17 17 -15 44 4 62 18
18 17 18 38 10z m-424 -14 c0 -4 -7 -10 -15 -14 -8 -3 -15 -17 -15 -31 0 -14
-4 -25 -10 -25 -5 0 -10 17 -10 39 0 34 3 39 25 39 14 0 25 -4 25 -8z m270
-30 c0 -22 -4 -40 -10 -40 -5 0 -10 18 -10 40 0 22 5 40 10 40 6 0 10 -18 10
-40z m45 13 l7 -28 10 28 c5 15 14 27 20 27 6 0 7 -7 4 -16 -3 -9 -9 -27 -12
-40 -3 -13 -12 -24 -19 -24 -17 0 -21 6 -30 48 -8 39 10 44 20 5z"/>
<path d="M930 480 c0 -79 0 -80 25 -80 37 0 75 42 75 82 0 49 -24 78 -66 78
l-34 0 0 -80z"/>
<path d="M618 558 c-8 -7 -18 -21 -21 -30 -6 -16 1 -18 48 -18 59 0 66 9 35
40 -23 23 -40 25 -62 8z"/>
<path d="M1522 554 c-39 -27 -28 -44 28 -44 37 0 50 4 50 14 0 13 -36 46 -50
46 -3 0 -16 -7 -28 -16z"/>
<path d="M1895 220 c-3 -5 1 -10 9 -10 9 0 16 5 16 10 0 6 -4 10 -9 10 -6 0
-13 -4 -16 -10z"/>
<path d="M1985 190 c-3 -5 -1 -10 4 -10 6 0 11 5 11 10 0 6 -2 10 -4 10 -3 0
-8 -4 -11 -10z"/>
<path d="M2260 220 c0 -5 5 -10 10 -10 6 0 10 5 10 10 0 6 -4 10 -10 10 -5 0
-10 -4 -10 -10z"/>
</g>
</svg>
